<svg width="24" height="24" viewBox="0 0 24 24" fill="none"
     xmlns="http://www.w3.org/2000/svg">
  <path fill-rule="evenodd" clip-rule="evenodd"
        d="M12 .5a11.5 11.5 0 0 0-3.63 22.41c.57.1.78-.25.78-.55v-1.94c-3.16.69-3.83-1.36-3.83-1.36a3 3 0 0 0-1.28-1.68c-1.05-.71.08-.7.08-.7a2.4 2.4 0 0 1 1.75 1.17A2.43 2.43 0 0 0 10 19.8a2.44 2.44 0 0 1 .72-1.54C7.5 18 4.6 16.9 4.6 12.5a4.42 4.42 0 0 1 1.18-3.05 4.1 4.1 0 0 1 .11-3.01s.94-.31 3.09 1.17a10.7 10.7 0 0 1 5.63 0c2.15-1.48 3.09-1.17 3.09-1.17a4.1 4.1 0 0 1 .11 3.01A4.42 4.42 0 0 1 19.4 12.5c0 4.43-2.92 5.49-5.7 5.78a2.72 2.72 0 0 1 .77 2.1v3.12c0 .31.21.66.79.55A11.5 11.5 0 0 0 12 .5Z"
        fill="#181717"/>
</svg>